<svg xmlns="http://www.w3.org/2000/svg" viewBox="0 0 520 110" fill="none">

  <!-- LEFT TOWER (taller) -->
  <line x1="42"  y1="90" x2="32"  y2="4"  stroke="white" stroke-width="2"/>
  <line x1="74"  y1="90" x2="84"  y2="4"  stroke="white" stroke-width="2"/>
  <line x1="50"  y1="90" x2="43"  y2="6"  stroke="white" stroke-width="1.3"/>
  <line x1="66"  y1="90" x2="73"  y2="6"  stroke="white" stroke-width="1.3"/>
  <line x1="30"  y1="4"  x2="86"  y2="4"  stroke="white" stroke-width="2.2"/>
  <line x1="33"  y1="28" x2="82"  y2="50" stroke="white" stroke-width="1.1" opacity="0.85"/>
  <line x1="33"  y1="50" x2="82"  y2="28" stroke="white" stroke-width="1.1" opacity="0.85"/>
  <line x1="36"  y1="55" x2="80"  y2="72" stroke="white" stroke-width="0.9" opacity="0.7"/>
  <line x1="36"  y1="72" x2="80"  y2="55" stroke="white" stroke-width="0.9" opacity="0.7"/>

  <!-- RIGHT TOWER (smaller) -->
  <line x1="114" y1="90" x2="108" y2="26" stroke="white" stroke-width="1.7"/>
  <line x1="140" y1="90" x2="146" y2="26" stroke="white" stroke-width="1.7"/>
  <line x1="120" y1="90" x2="115" y2="28" stroke="white" stroke-width="1.1"/>
  <line x1="134" y1="90" x2="139" y2="28" stroke="white" stroke-width="1.1"/>
  <line x1="106" y1="26" x2="148" y2="26" stroke="white" stroke-width="1.9"/>
  <line x1="108" y1="44" x2="144" y2="62" stroke="white" stroke-width="0.9" opacity="0.8"/>
  <line x1="108" y1="62" x2="144" y2="44" stroke="white" stroke-width="0.9" opacity="0.8"/>

  <!-- SUSPENSION CABLES -->
  <path d="M0,72 Q32,6 58,4 Q86,4 127,26 Q148,26 175,58" stroke="white" stroke-width="1.8" fill="none"/>
  <path d="M0,77 Q32,11 58,8 Q86,8 127,30 Q148,30 175,62" stroke="white" stroke-width="1.2" fill="none" opacity="0.65"/>

  <!-- BRIDGE DECK -->
  <line x1="0"   y1="90" x2="185" y2="90" stroke="white" stroke-width="2.2"/>

  <!-- WATER REFLECTIONS -->
  <line x1="4"   y1="97"  x2="178" y2="97"  stroke="white" stroke-width="1.2" opacity="0.35"/>
  <line x1="12"  y1="103" x2="165" y2="103" stroke="white" stroke-width="0.7" opacity="0.18"/>

  <!-- DIVIDER LINE -->
  <line x1="205" y1="8" x2="205" y2="102" stroke="rgba(255,255,255,0.14)" stroke-width="0.8"/>

  <!-- TEXT: LISBON -->
  <text
    x="220" y="65"
    font-family="Cormorant Garamond, Georgia, serif"
    font-size="62"
    font-weight="600"
    fill="white"
    letter-spacing="7">LISBON</text>

  <!-- TEXT: BUSINESS LEADERS -->
  <text
    x="223" y="86"
    font-family="Cormorant Garamond, Georgia, serif"
    font-size="17"
    font-weight="400"
    fill="rgba(255,255,255,0.72)"
    letter-spacing="9.5">BUSINESS LEADERS</text>

</svg>
